<svg width="187" height="139" viewBox="0 0 187 139" fill="none" xmlns="http://www.w3.org/2000/svg">
<g opacity="0.2" clip-path="url(#clip0_2234_8803)">
<path d="M45.0975 0C-33.4557 0 -97 63.5443 -97 142.097C-97 220.456 -33.4557 284.195 45.0975 284.195C123.456 284.195 187.195 220.651 187.195 142.097C187 63.5443 123.456 0 45.0975 0ZM45.0975 275.034C-28.3878 275.034 -87.8387 215.583 -87.8387 142.097C-87.8387 68.6122 -28.3878 9.16129 45.0975 9.16129C118.583 9.16129 178.034 68.6122 178.034 142.097C178.034 215.388 118.388 275.034 45.0975 275.034Z" fill="white"/>
<path d="M45.0988 30.6025C-16.3014 30.6025 -66.2012 80.5023 -66.2012 141.902C-66.2012 203.303 -16.3014 253.202 45.0988 253.202C106.499 253.202 156.399 203.498 156.399 142.097C156.399 80.5023 106.499 30.6025 45.0988 30.6025ZM45.0988 236.244C-6.94517 236.244 -49.243 193.946 -49.243 141.902C-49.243 89.8585 -6.94517 47.5607 45.0988 47.5607C97.1427 47.5607 139.441 89.8585 139.441 141.902C139.441 193.946 97.1427 236.244 45.0988 236.244Z" fill="white"/>
<path d="M45.098 79.5273C10.597 79.5273 -17.4717 107.596 -17.4717 142.097C-17.4717 176.598 10.402 204.667 45.098 204.667C79.599 204.667 107.668 176.598 107.668 142.097C107.473 107.596 79.599 79.5273 45.098 79.5273ZM45.098 175.623C26.5805 175.623 11.5716 160.614 11.5716 142.097C11.5716 123.579 26.5805 108.571 45.098 108.571C63.6155 108.571 78.6244 123.579 78.6244 142.097C78.6244 160.614 63.6155 175.623 45.098 175.623Z" fill="white"/>
</g>
<defs>
<clipPath id="clip0_2234_8803">
<rect width="284" height="284" fill="white" transform="translate(-97)"/>
</clipPath>
</defs>
</svg>
